<svg width="100" height="100" viewBox="0 0 100 100" fill="none" xmlns="http://www.w3.org/2000/svg">
  <path d="M50 61C63.8071 61 75 49.8071 75 36C75 22.1929 63.8071 11 50 11C36.1929 11 25 22.1929 25 36C25 49.8071 36.1929 61 50 61Z" fill="#324A5E" />
  <path d="M64.4875 24.0709V49.0315C64.4875 49.7402 63.8969 50.3307 63.1882 50.3307H60.9048V27.6929L54.8418 21.6299H39.0938V19.3465C39.0938 18.6378 39.6843 18.0472 40.393 18.0472H58.4245V22.7717C58.4245 23.4803 59.015 24.0709 59.7237 24.0709H64.4875V24.0709Z" fill="#E6E9EE" />
  <path d="M58.4648 18.0472V22.7717C58.4648 23.4803 59.0554 24.0709 59.7641 24.0709H64.4885L58.4648 18.0472Z" fill="#54C0EB" />
  <path d="M54.8424 21.6693H36.8109C36.1023 21.6693 35.5117 22.2599 35.5117 22.9685V52.6536C35.5117 53.3622 36.1023 53.9528 36.8109 53.9528H59.5668C60.2755 53.9528 60.866 53.3622 60.866 52.6536V27.6929H56.1416C55.433 27.6929 54.8424 27.1024 54.8424 26.3937V21.6693Z" fill="white" />
  <path d="M54.8418 21.6693V26.3937C54.8418 27.1024 55.4323 27.6929 56.141 27.6929H60.8654L54.8418 21.6693Z" fill="#84DBFF" />
  <path d="M54.8418 21.6693V26.3937C54.8418 27.1024 55.4323 27.6929 56.141 27.6929H60.8654L54.8418 21.6693Z" fill="white" />
  <path d="M48.2285 39.6614C48.1891 39.6614 48.1891 39.6614 48.2285 39.6614C48.1891 39.6614 48.1891 39.6614 48.2285 39.6614C45.7482 38.441 46.0238 36.9055 46.0238 36.9055C46.0238 36.8662 46.0238 36.8662 46.0238 36.8268C46.6143 37.5748 47.4017 38.0473 48.2285 38.0473C49.0553 38.0473 49.8033 37.5748 50.4332 36.8268C50.4332 36.8662 50.4332 36.8662 50.4332 36.9055C50.4332 36.9055 50.4332 36.9055 50.4332 36.9449C50.4332 37.1811 50.4726 38.5591 48.2285 39.6614Z" fill="#F9B54C" />
  <path d="M48.1887 47.1418C51.4958 47.1418 54.4485 45.567 56.3383 43.1261L55.2753 39.8977L50.8658 37.7717C50.8658 38.5198 50.8265 39.8583 50.5902 41.5119C50.0391 39.7796 48.1887 39.6615 48.1887 39.6615C48.1887 39.6615 46.3383 39.819 45.7871 41.5513C45.5509 39.8583 45.5115 38.5591 45.5115 37.7717L41.1021 39.8977L40.0391 43.1261C41.9288 45.567 44.8816 47.1418 48.1887 47.1418Z" fill="#324A5E" />
  <path d="M50.3942 36.9055C50.3942 36.9055 50.6698 38.4803 48.1895 39.6614C48.1895 39.6614 50.0399 39.8189 50.591 41.5512C50.6304 41.5906 51.6147 37.811 50.3942 36.9055Z" fill="white" />
  <path d="M46.0231 36.9055C46.0231 36.9055 45.7475 38.4803 48.2279 39.6614C48.2279 39.6614 46.3775 39.8189 45.8263 41.5512C45.7869 41.5906 44.8027 37.811 46.0231 36.9055Z" fill="white" />
  <path d="M51.3385 34.3858C51.4172 33.9528 51.4566 33.4803 51.4566 33.0866C51.4566 30.7244 49.9999 29.7795 48.1889 29.7795C46.3779 29.7795 44.9212 30.7244 44.9212 33.0866C44.9212 33.5197 44.9606 33.9528 45.0393 34.3858C44.7637 34.5039 44.685 34.937 44.8818 35.3307C45.0393 35.6063 45.2755 35.8032 45.5117 35.8032C46.1023 37.2205 47.0865 38.3228 48.1889 38.3228C49.2913 38.3228 50.2755 37.2205 50.8661 35.8032C51.1023 35.8032 51.3385 35.6063 51.496 35.3307C51.6928 34.937 51.6141 34.5433 51.3385 34.3858Z" fill="#FFD05B" />
  <path d="M48.189 28.4409C48.189 28.4409 49.6064 28.4803 50.8662 29.6614C53.6221 32.2598 50.7087 36.1181 50.7087 36.1181C50.7087 36.1181 51.1024 35.1732 50.9449 34.1889C50.9056 33.8346 50.8662 33.4409 50.8662 33.0866C50.9056 32.4173 50.7481 31.3937 49.1339 31.6693C49.1339 31.6693 48.2284 32.3386 46.0237 31.7874C46.0237 31.7874 44.6064 33.9527 45.3938 35.8031C45.3938 35.8031 43.0709 32.2992 45.5119 30.0551L44.8819 30.2126C44.8819 30.2126 45.7875 28.5197 47.6379 29.1102C47.6379 29.1102 47.4804 28.8346 46.8898 28.6771C46.8898 28.6771 47.7166 28.3228 48.189 28.9134C48.189 28.874 48.4646 28.6771 48.189 28.4409Z" fill="#324A5E" />
  <path d="M33.0553 83.9505L31.7011 80.0509L30.4182 83.9505H33.0553ZM30.6575 86.4807V87H28.0102V86.4807L28.6313 86.3331C28.7059 86.3161 28.7687 86.2856 28.8196 86.2415C28.8739 86.1973 28.913 86.1379 28.9367 86.0633L31.3651 79.0225H32.4545L34.9847 86.0633C35.0119 86.1379 35.0509 86.1973 35.1018 86.2415C35.1527 86.2822 35.2155 86.3127 35.2902 86.3331L35.8756 86.4807V87H32.8618V86.4807L33.8698 86.2975L33.2691 84.5716H30.2145L29.6495 86.2975L30.6575 86.4807ZM39.0152 86.3738C39.2698 86.3738 39.509 86.3314 39.733 86.2465C39.957 86.1617 40.1556 86.048 40.3287 85.9055V81.904C40.2065 81.8327 40.047 81.7716 39.8501 81.7207C39.6567 81.6698 39.453 81.6444 39.2392 81.6444C39.0017 81.6444 38.776 81.6851 38.5621 81.7665C38.3517 81.8446 38.1684 81.977 38.0123 82.1636C37.8562 82.3503 37.7323 82.6015 37.6407 82.9171C37.549 83.2327 37.5032 83.6247 37.5032 84.0931C37.5032 84.5343 37.544 84.9025 37.6254 85.1978C37.7069 85.4897 37.8155 85.7239 37.9512 85.9004C38.0904 86.0735 38.2516 86.1956 38.4349 86.2669C38.6181 86.3382 38.8116 86.3738 39.0152 86.3738ZM41.3163 87.0865C41.0414 87.0865 40.8293 87.0153 40.68 86.8727C40.534 86.7302 40.4339 86.552 40.3796 86.3382C40.1827 86.5554 39.9367 86.7404 39.6414 86.8931C39.3495 87.0424 39.0084 87.1171 38.6181 87.1171C38.3093 87.1171 38.014 87.0628 37.7323 86.9542C37.454 86.8456 37.2113 86.6776 37.0043 86.4502C36.7973 86.2194 36.6327 85.9224 36.5105 85.5593C36.3883 85.1961 36.3272 84.7634 36.3272 84.2611C36.3272 83.7215 36.3985 83.2497 36.541 82.8458C36.687 82.4419 36.8889 82.1076 37.1469 81.8429C37.4082 81.5782 37.7221 81.3813 38.0887 81.2524C38.4552 81.12 38.8591 81.0538 39.3003 81.0538C39.4904 81.0538 39.6736 81.0657 39.8501 81.0895C40.0266 81.1132 40.1861 81.1421 40.3287 81.176V79.0225C40.3287 78.9309 40.3032 78.8596 40.2523 78.8087C40.2048 78.7578 40.1386 78.7256 40.0538 78.712L39.28 78.6051V78.1367C39.4259 78.0926 39.5837 78.0536 39.7534 78.0196C39.9231 77.9857 40.0945 77.9568 40.2676 77.9331C40.4441 77.9093 40.6172 77.8907 40.7869 77.8771C40.9566 77.8601 41.1144 77.8499 41.2603 77.8465L41.4181 78.0095V86.0378C41.4181 86.1566 41.4453 86.2398 41.4996 86.2873C41.5573 86.3314 41.6286 86.3585 41.7134 86.3687L42.2989 86.4196V86.9033C42.1835 86.9406 42.0307 86.9796 41.8407 87.0204C41.6506 87.0645 41.4758 87.0865 41.3163 87.0865ZM43.2315 84.1236C43.2315 83.5908 43.3045 83.1292 43.4504 82.7389C43.5998 82.3486 43.8 82.0296 44.0512 81.7818C44.3023 81.5341 44.5976 81.3508 44.937 81.232C45.2798 81.1132 45.6429 81.0538 46.0264 81.0538C46.4778 81.0538 46.8681 81.1268 47.1973 81.2727C47.5299 81.4153 47.8015 81.6172 48.0119 81.8785C48.2257 82.1365 48.3835 82.4521 48.4853 82.8255C48.5872 83.1954 48.6381 83.6061 48.6381 84.0575C48.6381 84.5903 48.5634 85.0519 48.4141 85.4422C48.2681 85.8291 48.0696 86.1464 47.8184 86.3942C47.5673 86.6419 47.2703 86.8252 46.9275 86.944C46.5847 87.0628 46.2216 87.1222 45.8381 87.1222C45.3867 87.1222 44.9947 87.0509 44.6621 86.9084C44.3329 86.7624 44.063 86.5605 43.8526 86.3025C43.6422 86.0412 43.4861 85.7256 43.3842 85.3556C43.2824 84.9823 43.2315 84.5716 43.2315 84.1236ZM47.4315 84.1593C47.4315 83.7758 47.4061 83.4279 47.3552 83.1156C47.3076 82.8034 47.2245 82.5387 47.1057 82.3215C46.9869 82.1008 46.8291 81.9312 46.6322 81.8124C46.4354 81.6936 46.1893 81.6342 45.8941 81.6342C45.3986 81.6342 45.0303 81.8225 44.7893 82.1993C44.5518 82.576 44.433 83.1818 44.433 84.0167C44.433 84.3968 44.4567 84.743 44.5042 85.0553C44.5552 85.3675 44.6383 85.6339 44.7537 85.8545C44.8725 86.0718 45.0303 86.2415 45.2272 86.3636C45.4274 86.4824 45.6769 86.5418 45.9755 86.5418C46.4676 86.5418 46.8325 86.3535 47.0701 85.9767C47.311 85.5966 47.4315 84.9908 47.4315 84.1593ZM52.448 86.4807V87H49.5614V86.4807L50.1876 86.384C50.2759 86.3704 50.3437 86.3365 50.3913 86.2822C50.4388 86.2279 50.4625 86.1566 50.4625 86.0684V79.0225C50.4625 78.9309 50.4388 78.8596 50.3913 78.8087C50.3437 78.7578 50.2759 78.7256 50.1876 78.712L49.4393 78.6051V78.1367C49.7345 78.0519 50.0587 77.984 50.4116 77.9331C50.768 77.8822 51.0938 77.8533 51.3891 77.8465L51.552 78.0044V84.3731L53.8429 81.8735L52.8247 81.7105V81.2167H55.6044V81.7105L54.9934 81.8429C54.895 81.8633 54.8136 81.887 54.7491 81.9142C54.6846 81.9379 54.6201 81.9821 54.5556 82.0465L53.2473 83.4058C53.3457 83.5348 53.4373 83.6655 53.5222 83.7978C53.607 83.9268 53.697 84.0761 53.792 84.2458L54.8509 86.0327C54.9086 86.1278 54.968 86.199 55.0291 86.2465C55.0936 86.2941 55.1631 86.3263 55.2378 86.3433L55.8793 86.4807V87H54.3367C54.1976 87 54.0703 86.9185 53.9549 86.7556C53.8429 86.5927 53.719 86.3823 53.5833 86.1244L53.0029 85.0247C52.918 84.8618 52.8349 84.7091 52.7534 84.5665C52.6754 84.4206 52.5973 84.2848 52.5193 84.1593L51.552 85.1724V86.0735C51.552 86.1617 51.5757 86.233 51.6233 86.2873C51.6742 86.3382 51.742 86.3704 51.8269 86.384L52.448 86.4807ZM58.5356 81.2473V86.0633C58.5356 86.1549 58.5593 86.2279 58.6068 86.2822C58.6543 86.3365 58.7222 86.3704 58.8105 86.384L59.4367 86.4807V87H56.5399V86.4807L57.1661 86.384C57.2543 86.3704 57.3222 86.3365 57.3697 86.2822C57.4207 86.2279 57.4461 86.1566 57.4461 86.0684V82.2756C57.4461 82.184 57.4223 82.111 57.3748 82.0567C57.3307 82.0024 57.2645 81.9685 57.1763 81.9549L56.4687 81.8531V81.3542C56.7605 81.2659 57.0779 81.2015 57.4207 81.1607C57.7634 81.1166 58.0808 81.0912 58.3727 81.0844L58.5356 81.2473ZM58.617 79.5062C58.617 79.7234 58.5474 79.9016 58.4083 80.0407C58.2691 80.1765 58.0876 80.2444 57.8636 80.2444C57.6396 80.2444 57.458 80.1765 57.3188 80.0407C57.1797 79.9016 57.1101 79.7234 57.1101 79.5062C57.1101 79.2924 57.1797 79.1176 57.3188 78.9818C57.458 78.8461 57.6396 78.7782 57.8636 78.7782C58.0876 78.7782 58.2691 78.8461 58.4083 78.9818C58.5474 79.1176 58.617 79.2924 58.617 79.5062ZM61.1528 89.632C60.9661 89.632 60.7693 89.6235 60.5622 89.6065C60.3586 89.5896 60.1584 89.5658 59.9615 89.5353V88.8938C60.362 88.8599 60.7167 88.809 61.0255 88.7411C61.3344 88.6766 61.6076 88.5765 61.8451 88.4407C62.0827 88.305 62.2915 88.1217 62.4713 87.8909C62.6546 87.6601 62.8209 87.3632 62.9702 87H62.4459L60.5979 82.1076C60.5707 82.033 60.5317 81.9736 60.4808 81.9295C60.4299 81.8853 60.3671 81.8531 60.2924 81.8327L59.8699 81.7156V81.2116L62.6241 81.2167V81.7207L61.7535 81.8684L63.2808 86.1091L64.6197 81.8684L63.7899 81.7156V81.2116H66.0044V81.7156L65.587 81.8327C65.5055 81.8565 65.4393 81.8887 65.3884 81.9295C65.3409 81.9702 65.3036 82.0347 65.2764 82.1229L63.5404 87.2189C63.2553 88.0436 62.9329 88.6512 62.5731 89.0415C62.2168 89.4352 61.7433 89.632 61.1528 89.632ZM69.1575 81.6342C68.7909 81.6342 68.4872 81.7615 68.2462 82.016C68.0052 82.2672 67.8491 82.6693 67.7778 83.2225H70.3386C70.342 83.1852 70.3454 83.1479 70.3488 83.1105C70.3522 83.0698 70.3538 83.0274 70.3538 82.9833C70.3538 82.5862 70.2503 82.2621 70.0433 82.0109C69.8363 81.7598 69.541 81.6342 69.1575 81.6342ZM71.4229 85.7375C71.2872 86.1481 71.0225 86.4824 70.6288 86.7404C70.2351 86.9949 69.7463 87.1222 69.1626 87.1222C68.7282 87.1222 68.348 87.0492 68.0222 86.9033C67.6998 86.7539 67.4317 86.5486 67.2178 86.2873C67.0074 86.0259 66.8496 85.7137 66.7444 85.3505C66.6392 84.9874 66.5866 84.592 66.5866 84.1644C66.5866 83.679 66.6511 83.2429 66.78 82.856C66.909 82.4691 67.0923 82.1433 67.3298 81.8785C67.5674 81.6104 67.8542 81.4068 68.1902 81.2676C68.5262 81.1251 68.8995 81.0538 69.3102 81.0538C69.6258 81.0538 69.9143 81.0979 70.1757 81.1862C70.437 81.271 70.661 81.3966 70.8477 81.5629C71.0343 81.7292 71.1786 81.9379 71.2804 82.1891C71.3856 82.4402 71.4382 82.7304 71.4382 83.0596C71.4382 83.1547 71.4331 83.2701 71.4229 83.4058C71.4128 83.5382 71.3992 83.657 71.3822 83.7622H67.7371C67.7371 83.7859 67.7371 83.8114 67.7371 83.8385C67.7371 83.8657 67.7371 83.8928 67.7371 83.92C67.7371 84.3782 67.7812 84.7651 67.8695 85.0807C67.9577 85.393 68.0782 85.6441 68.2309 85.8342C68.3837 86.0208 68.5652 86.1549 68.7757 86.2364C68.9861 86.3178 69.2135 86.3585 69.4578 86.3585C69.7905 86.3585 70.0976 86.2839 70.3793 86.1345C70.6644 85.9852 70.8901 85.7833 71.0564 85.5287L71.4229 85.7375Z" fill="black" />
</svg>
