<svg width="196" height="43" viewBox="0 0 196 43" fill="none" xmlns="http://www.w3.org/2000/svg">
  <path d="M21.4319 35.436H9.87427L7.677 42.0278H0.667725L12.5769 10.0356H18.6853L30.6604 42.0278H23.6511L21.4319 35.436ZM11.6541 30.0967H19.6521L15.6311 18.1216L11.6541 30.0967ZM46.5466 10.0356H53.1384V32.1841C53.1384 34.2202 52.6843 36.022 51.7761 37.5894C50.8826 39.1421 49.6155 40.3433 47.9749 41.1929C46.3342 42.0425 44.4812 42.4673 42.4158 42.4673C39.032 42.4673 36.3953 41.6104 34.5056 39.8965C32.616 38.168 31.6711 35.729 31.6711 32.5796H38.3069C38.3069 34.147 38.6365 35.3042 39.2957 36.0513C39.9548 36.7983 40.9949 37.1719 42.4158 37.1719C43.6755 37.1719 44.679 36.7397 45.426 35.8755C46.1731 35.0112 46.5466 33.7808 46.5466 32.1841V10.0356ZM76.3635 35.436H64.8059L62.6086 42.0278H55.5994L67.5085 10.0356H73.6169L85.592 42.0278H78.5828L76.3635 35.436ZM66.5857 30.0967H74.5837L70.5627 18.1216L66.5857 30.0967ZM88.5803 42.0278V10.0356H98.4241C101.237 10.0356 103.749 10.6729 105.961 11.9473C108.187 13.207 109.923 15.0088 111.168 17.3525C112.413 19.6816 113.036 22.333 113.036 25.3066V26.7788C113.036 29.7524 112.421 32.3965 111.19 34.7109C109.974 37.0254 108.253 38.8198 106.027 40.0942C103.8 41.3687 101.288 42.0132 98.49 42.0278H88.5803ZM95.1721 15.375V36.7324H98.3582C100.936 36.7324 102.906 35.8901 104.269 34.2056C105.631 32.521 106.327 30.1113 106.356 26.9766V25.2847C106.356 22.0327 105.682 19.5718 104.335 17.9019C102.987 16.2173 101.017 15.375 98.4241 15.375H95.1721ZM124.857 42.0278H118.265V10.0356H124.857V42.0278ZM164.957 15.375H155.157V42.0278H148.566V15.375H138.898V10.0356H164.957V15.375ZM180.909 34.0957L188.16 10.0356H195.499L184.359 42.0278H177.482L166.385 10.0356H173.702L180.909 34.0957Z" fill="#0D0D0D" />
</svg>
