<svg width="96" height="96" viewBox="0 0 96 96" fill="none" xmlns="http://www.w3.org/2000/svg">
  <path d="M1.70703 71.3821C1.70703 70.007 1.92041 68.7267 2.34717 67.5413C2.77392 66.3321 3.3785 65.2889 4.16089 64.4117C4.96698 63.5345 5.93904 62.8469 7.07706 62.3491C8.21508 61.8512 9.49535 61.6022 10.9179 61.6022C12.6723 61.6022 14.3319 61.9223 15.8967 62.5624L14.9721 66.0832C14.4742 65.8698 13.9052 65.692 13.265 65.5497C12.6486 65.4075 11.9848 65.3364 11.2735 65.3364C9.59019 65.3364 8.30992 65.8698 7.43269 66.9367C6.55547 67.9799 6.11686 69.4617 6.11686 71.3821C6.11686 73.2314 6.53176 74.7013 7.36157 75.7919C8.19137 76.8588 9.59019 77.3923 11.558 77.3923C12.293 77.3923 13.0161 77.3211 13.7274 77.1789C14.4386 77.0366 15.0551 76.8588 15.5766 76.6454L16.1812 80.2017C15.707 80.4388 14.9839 80.6522 14.0119 80.8419C13.0635 81.0315 12.0796 81.1264 11.0601 81.1264C9.47164 81.1264 8.08468 80.8893 6.89925 80.4151C5.73752 79.9172 4.76546 79.2415 3.98307 78.388C3.22439 77.5108 2.65538 76.4795 2.27604 75.294C1.8967 74.0849 1.70703 72.7809 1.70703 71.3821ZM19.5128 80.6641V53.7783L23.8159 53.0671V62.2779C24.2901 62.112 24.8354 61.9697 25.4518 61.8512C26.0919 61.7326 26.7202 61.6734 27.3366 61.6734C28.8303 61.6734 30.0632 61.8867 31.0352 62.3135C32.031 62.7165 32.8252 63.2974 33.4179 64.0561C34.0107 64.7911 34.4256 65.6801 34.6626 66.7233C34.9234 67.7665 35.0538 68.9282 35.0538 70.2085V80.6641H30.7507V70.8842C30.7507 69.8884 30.6796 69.0468 30.5373 68.3592C30.4188 67.648 30.2054 67.079 29.8972 66.6522C29.6127 66.2017 29.2215 65.8817 28.7236 65.692C28.2257 65.4786 27.6093 65.3719 26.8743 65.3719C26.3053 65.3719 25.7245 65.4312 25.1317 65.5497C24.539 65.6683 24.1004 65.775 23.8159 65.8698V80.6641H19.5128ZM46.7552 77.6412C48.0829 77.6412 49.0905 77.5701 49.7781 77.4278V72.6624C49.541 72.5912 49.1972 72.5201 48.7468 72.449C48.2963 72.3779 47.7984 72.3423 47.2531 72.3423C46.7789 72.3423 46.2929 72.3779 45.795 72.449C45.3208 72.5201 44.8822 72.6505 44.4792 72.8402C44.0998 73.0298 43.7916 73.3025 43.5545 73.6581C43.3175 73.9901 43.1989 74.4168 43.1989 74.9384C43.1989 75.9579 43.519 76.6691 44.1591 77.0722C44.7993 77.4515 45.6646 77.6412 46.7552 77.6412ZM46.3996 61.6022C47.8221 61.6022 49.0194 61.78 49.9915 62.1357C50.9635 62.4913 51.7341 62.9892 52.3031 63.6293C52.8958 64.2695 53.3107 65.0519 53.5478 65.9765C53.8086 66.8774 53.939 67.8732 53.939 68.9638V80.2373C53.2751 80.3796 52.2675 80.5455 50.9161 80.7352C49.5884 80.9486 48.0829 81.0553 46.3996 81.0553C45.2853 81.0553 44.2658 80.9486 43.3412 80.7352C42.4165 80.5218 41.6223 80.178 40.9584 79.7039C40.3183 79.2297 39.8086 78.6133 39.4292 77.8546C39.0736 77.0959 38.8958 76.1594 38.8958 75.0451C38.8958 73.9782 39.0973 73.0773 39.5003 72.3423C39.9271 71.6073 40.4961 71.0146 41.2074 70.5641C41.9186 70.09 42.7366 69.758 43.6612 69.5684C44.6096 69.355 45.5935 69.2483 46.613 69.2483C47.0871 69.2483 47.585 69.2839 48.1066 69.355C48.6282 69.4024 49.1854 69.4972 49.7781 69.6395V68.9282C49.7781 68.4303 49.7188 67.9562 49.6003 67.5057C49.4817 67.0552 49.2683 66.664 48.9601 66.3321C48.6756 65.9765 48.2844 65.7038 47.7866 65.5142C47.3124 65.3245 46.7078 65.2297 45.9728 65.2297C44.9771 65.2297 44.0643 65.3008 43.2345 65.443C42.4047 65.5853 41.729 65.7513 41.2074 65.9409L40.6739 62.4557C41.2192 62.2661 42.0135 62.0764 43.0567 61.8867C44.0998 61.6971 45.2142 61.6022 46.3996 61.6022ZM63.5118 69.3194C64.0571 68.7504 64.638 68.1458 65.2544 67.5057C65.8709 66.8419 66.4754 66.1899 67.0682 65.5497C67.6609 64.8859 68.218 64.2576 68.7396 63.6649C69.2849 63.0485 69.7472 62.515 70.1266 62.0646H75.2121C74.0267 63.3922 72.7701 64.7673 71.4424 66.1899C70.1384 67.6124 68.8226 68.9994 67.4949 70.3508C68.2062 70.9435 68.953 71.6666 69.7354 72.5201C70.5178 73.3499 71.2765 74.239 72.0114 75.1873C72.7464 76.1357 73.434 77.084 74.0741 78.0324C74.7142 78.9807 75.2477 79.858 75.6744 80.6641H70.6956C70.2688 79.9291 69.771 79.1586 69.2019 78.3525C68.6566 77.5464 68.0639 76.764 67.4238 76.0053C66.7836 75.2466 66.1317 74.5354 65.4678 73.8715C64.804 73.184 64.152 72.6031 63.5118 72.1289V80.6641H59.2087V53.7783L63.5118 53.0671V69.3194ZM85.3398 77.6412C86.6675 77.6412 87.6751 77.5701 88.3627 77.4278V72.6624C88.1256 72.5912 87.7818 72.5201 87.3313 72.449C86.8809 72.3779 86.383 72.3423 85.8377 72.3423C85.3635 72.3423 84.8775 72.3779 84.3796 72.449C83.9054 72.5201 83.4668 72.6505 83.0638 72.8402C82.6844 73.0298 82.3762 73.3025 82.1391 73.6581C81.902 73.9901 81.7835 74.4168 81.7835 74.9384C81.7835 75.9579 82.1036 76.6691 82.7437 77.0722C83.3838 77.4515 84.2492 77.6412 85.3398 77.6412ZM84.9842 61.6022C86.4067 61.6022 87.604 61.78 88.5761 62.1357C89.5481 62.4913 90.3186 62.9892 90.8877 63.6293C91.4804 64.2695 91.8953 65.0519 92.1324 65.9765C92.3932 66.8774 92.5236 67.8732 92.5236 68.9638V80.2373C91.8597 80.3796 90.8521 80.5455 89.5007 80.7352C88.173 80.9486 86.6675 81.0553 84.9842 81.0553C83.8699 81.0553 82.8504 80.9486 81.9258 80.7352C81.0011 80.5218 80.2069 80.178 79.543 79.7039C78.9029 79.2297 78.3931 78.6133 78.0138 77.8546C77.6582 77.0959 77.4804 76.1594 77.4804 75.0451C77.4804 73.9782 77.6819 73.0773 78.0849 72.3423C78.5117 71.6073 79.0807 71.0146 79.792 70.5641C80.5032 70.09 81.3212 69.758 82.2458 69.5684C83.1942 69.355 84.1781 69.2483 85.1976 69.2483C85.6717 69.2483 86.1696 69.2839 86.6912 69.355C87.2128 69.4024 87.77 69.4972 88.3627 69.6395V68.9282C88.3627 68.4303 88.3034 67.9562 88.1849 67.5057C88.0663 67.0552 87.8529 66.664 87.5447 66.3321C87.2602 65.9765 86.869 65.7038 86.3711 65.5142C85.897 65.3245 85.2924 65.2297 84.5574 65.2297C83.5617 65.2297 82.6489 65.3008 81.8191 65.443C80.9893 65.5853 80.3136 65.7513 79.792 65.9409L79.2585 62.4557C79.8038 62.2661 80.5981 62.0764 81.6412 61.8867C82.6844 61.6971 83.7987 61.6022 84.9842 61.6022Z" fill="#031C2C" />
  <path d="M45.126 37.8652C52.0609 40.7102 70.7315 34.4866 66.1083 16.5273C58.1066 15.2233 42.7077 17.6653 45.126 37.8652Z" fill="#22A4EF" />
  <path fill-rule="evenodd" clip-rule="evenodd" d="M44.2661 27.9225C43.5385 30.7954 43.2393 34.2058 43.5146 38.2398C35.8632 40.018 19.3484 33.5356 23.727 16.5268C30.1592 15.4786 41.3715 16.851 44.2661 27.9225Z" fill="#22A4EF" />
  <path fill-rule="evenodd" clip-rule="evenodd" d="M37.2056 16.827C40.2538 18.4606 42.9785 21.2439 44.8591 25.6705C46.7366 21.2511 49.4555 18.4697 52.4978 16.835C50.8043 12.9831 47.7956 9.87443 45.1913 8C40.9447 10.5078 38.4499 13.5936 37.2056 16.827Z" fill="#22A4EF" />
</svg>
