<svg xmlns="http://www.w3.org/2000/svg" version="1.1" xmlns:xlink="http://www.w3.org/1999/xlink" xmlns:svgjs="http://svgjs.com/svgjs" viewBox="0 0 24 24" width="24" height="24">
  <g transform="matrix(1,0,0,1,0,0)">
    <path d="M0.504 10.455 A5 1 0 1 0 10.504 10.455 A5 1 0 1 0 0.504 10.455 Z" fill="none" stroke="#1fa5ef" stroke-linecap="round" stroke-linejoin="round"></path>
    <path d="M10.5,10.455v3c0,.553-2.238,1-5,1s-5-.447-5-1v-3" fill="none" stroke="#1fa5ef" stroke-linecap="round" stroke-linejoin="round"></path>
    <path d="M10.5,13.455v3c0,.553-2.238,1-5,1s-5-.447-5-1v-3" fill="none" stroke="#1fa5ef" stroke-linecap="round" stroke-linejoin="round"></path>
    <path d="M10.5,16.455v3c0,.553-2.238,1-5,1s-5-.447-5-1v-3" fill="none" stroke="#1fa5ef" stroke-linecap="round" stroke-linejoin="round"></path>
    <path d="M10.5,19.455v3c0,.553-2.238,1-5,1s-5-.447-5-1v-3" fill="none" stroke="#1fa5ef" stroke-linecap="round" stroke-linejoin="round"></path>
    <path d="M4.381,6.954C5.724,4.058,9.1,2,13.049,2a10.931,10.931,0,0,1,3,.42A4.878,4.878,0,0,1,18.607.564a.5.5,0,0,1,.635.482V4.005a8.155,8.155,0,0,1,2.326,3.448h.937a1,1,0,0,1,1,1v3a1,1,0,0,1-1,1h-.936a7.067,7.067,0,0,1-2.605,3.224l.808,2.191a1.548,1.548,0,1,1-2.905,1.071l-.707-1.915a10.875,10.875,0,0,1-3.11.459" fill="none" stroke="#1fa5ef" stroke-linecap="round" stroke-linejoin="round"></path>
    <path d="M17.254,6.955a.25.25,0,1,0,.25.25.25.25,0,0,0-.25-.25" fill="none" stroke="#1fa5ef" stroke-linecap="round" stroke-linejoin="round"></path>
    <path d="M8,5.955a6.172,6.172,0,0,1,4-2" fill="none" stroke="#1fa5ef" stroke-linecap="round" stroke-linejoin="round"></path>
  </g>
</svg>
