<svg width="100" height="100" viewBox="0 0 100 100" fill="none" xmlns="http://www.w3.org/2000/svg">
  <path d="M46.8037 43.3983L52.9989 56.0842C58.899 64.3461 70.1137 61.5413 70.1137 61.5413L52.9989 30.4066L46.8037 43.3983Z" fill="#6EBF57" />
  <path d="M30.1371 61.8574L30 12C30 12 39.4432 12.2478 42.7122 22.2815L42.5224 48.3492L30.1371 61.8574Z" fill="#00AEEF" />
  <path d="M68.1978 12.1527C68.1978 12.1527 56.5401 11.1193 48.8686 23.5151L30.1299 61.8783C30.1299 61.8783 42.5257 62.1736 49.2377 50.3684L68.1978 12.1527Z" fill="#EC6623" />
  <g clip-path="url(#clip0)">
    <path d="M45.9854 85.9786C45.5497 87.2876 44.3148 88.231 42.8596 88.231C40.8089 88.231 39.1959 86.3578 39.6393 84.2291C39.9015 82.9718 40.8927 81.9805 42.1501 81.7183C43.4074 81.4561 44.575 81.9113 45.3216 82.7515C45.3216 82.7524 45.3216 82.7524 45.3226 82.7524C45.6998 83.7749 44.2466 84.0965 44.2466 84.0965C43.962 83.6287 43.4473 83.3158 42.8596 83.3158C42.6355 83.3158 42.422 83.3616 42.2281 83.4435C42.2037 83.4532 42.1793 83.4649 42.1559 83.4756C42.1325 83.4874 42.1091 83.499 42.0857 83.5117C42.074 83.5176 42.0624 83.5244 42.0516 83.5312C42.0175 83.5507 41.9844 83.5712 41.9522 83.5936C41.9308 83.6082 41.9093 83.6228 41.8889 83.6384C41.8684 83.654 41.8479 83.6696 41.8275 83.6871C41.4668 83.9844 41.2368 84.4347 41.2368 84.9396V84.9454C41.2368 84.9708 41.2378 84.9971 41.2397 85.0224C41.2407 85.0498 41.2426 85.078 41.2456 85.1053C41.3148 85.7905 41.8099 86.3499 42.4629 86.5127C42.4824 86.5176 42.5019 86.5224 42.5214 86.5264C42.5448 86.5312 42.5828 86.539 42.6062 86.5419C42.6101 86.5429 42.613 86.5429 42.6169 86.5439C42.6706 86.5517 42.7261 86.5575 42.7817 86.5605C42.808 86.5615 42.8333 86.5624 42.8606 86.5624C42.8791 86.5624 42.8986 86.5615 42.9171 86.5615C42.9405 86.5605 42.9629 86.5595 42.9854 86.5575C43.0019 86.5566 43.0185 86.5546 43.0351 86.5527C43.039 86.5517 43.0428 86.5517 43.0477 86.5507C43.0653 86.5488 43.0819 86.5468 43.0984 86.5439C43.114 86.542 43.1286 86.539 43.1432 86.5371C43.1452 86.5361 43.1462 86.5361 43.1472 86.5361C43.1588 86.5342 43.1696 86.5322 43.1803 86.5303C43.193 86.5273 43.2056 86.5254 43.2183 86.5224C43.232 86.5196 43.2456 86.5166 43.2592 86.5127C43.2661 86.5108 43.2729 86.5088 43.2788 86.5078C43.2943 86.504 43.3099 86.4991 43.3265 86.4942C43.4045 86.4718 43.4785 86.4425 43.5507 86.4084L43.578 86.3957C43.5848 86.3919 43.5926 86.3889 43.5994 86.3841C43.6247 86.3714 43.6501 86.3578 43.6735 86.3431C43.6832 86.3383 43.692 86.3324 43.7017 86.3266C43.7144 86.3197 43.7271 86.311 43.7398 86.3032C44.076 86.0858 44.4737 85.9805 44.8743 85.9805H45.9854V85.9786Z" fill="#EC6623" />
    <path d="M46.1528 84.9367C46.1528 84.9688 46.1518 85.001 46.1509 85.0332H46.145C46.145 85.1199 46.1099 85.1988 46.0524 85.2554C45.9959 85.3129 45.9169 85.348 45.8302 85.348H41.8672C41.8672 85.002 42.0075 84.6881 42.2346 84.462C42.4607 84.2349 42.7746 84.0946 43.1206 84.0946H44.2473C44.2473 84.0946 45.7006 83.7729 45.3234 82.7505C45.8399 83.3324 46.1528 84.0984 46.1528 84.9367Z" fill="#EC6623" />
    <path d="M23.1064 84.8042L24.2517 87.1492C25.3423 88.6765 27.4154 88.158 27.4154 88.158L24.2517 82.4026L23.1064 84.8042Z" fill="#6EBF57" />
    <path d="M20.0253 88.2165L20 79C20 79 21.7456 79.0458 22.3499 80.9006L22.3148 85.7194L20.0253 88.2165Z" fill="#00AEEF" />
    <path d="M27.0615 79.0283C27.0615 79.0283 24.9065 78.8373 23.4884 81.1287L20.0244 88.2204C20.0244 88.2204 22.3159 88.275 23.5566 86.0927L27.0615 79.0283Z" fill="#EC6623" />
    <path d="M30.2559 88.2164C29.1486 88.2164 28.25 87.3188 28.25 86.2105V81.4863C29.3572 81.4863 30.2559 82.384 30.2559 83.4922V88.2164Z" fill="#EC6623" />
    <path d="M30.1849 81.426C29.1576 81.426 28.3242 80.5927 28.3242 79.5654V79.0469C29.3515 79.0469 30.1849 79.8802 30.1849 80.9075V81.426Z" fill="#EC6623" />
    <path d="M33.0977 88.196C31.9904 88.196 31.0918 87.2984 31.0918 86.1901V81.4659C32.199 81.4659 33.0977 82.3636 33.0977 83.4718V88.196Z" fill="#EC6623" />
    <path d="M33.0257 81.4064C31.9984 81.4064 31.165 80.573 31.165 79.5457V79.0272C32.1923 79.0272 33.0257 79.8606 33.0257 80.8879V81.4064Z" fill="#EC6623" />
    <path d="M36.6969 88.2155H35.9932V86.2612H38.6511C38.6511 87.3402 37.7758 88.2155 36.6969 88.2155Z" fill="#EC6623" />
    <path d="M36.6988 83.9972H35.9951V82.043H38.653C38.653 83.1219 37.7778 83.9972 36.6988 83.9972Z" fill="#EC6623" />
    <path d="M36.0567 88.2165C34.9592 88.2165 34.0693 87.3266 34.0693 86.2292V79.0254C35.1668 79.0254 36.0567 79.9153 36.0567 81.0127V88.2165Z" fill="#EC6623" />
    <path d="M42.4644 86.5108C41.8114 86.3471 41.3163 85.7886 41.2471 85.1034C41.3172 85.7808 41.8124 86.3451 42.4644 86.5108Z" fill="#EC6623" />
    <path d="M53.4981 85.9776C53.0624 87.2857 51.8275 88.2301 50.3723 88.2301C49.769 88.2301 49.2037 88.0683 48.7173 87.7847C48.1968 87.4826 47.767 87.041 47.4795 86.5108C49.1618 87.4212 50.7583 86.5507 50.8908 86.4757L50.8957 86.4728L50.8977 86.4718C50.9542 86.4523 51.0088 86.4299 51.0624 86.4045L51.0897 86.3919C51.0975 86.388 51.1043 86.3841 51.1111 86.3812C51.1365 86.3685 51.1618 86.3539 51.1862 86.3392C51.1949 86.3344 51.2047 86.3285 51.2135 86.3236C51.2261 86.3159 51.2388 86.308 51.2515 86.3003C51.5877 86.0829 51.9854 85.9767 52.386 85.9767H53.4981V85.9776Z" fill="#EC6623" />
    <path d="M52.7534 83.0936C52.7534 83.6014 52.3694 84.0946 51.7602 84.0946C51.7593 84.0936 51.7593 84.0936 51.7593 84.0936C51.4747 83.6257 50.96 83.3129 50.3713 83.3129C50.1471 83.3129 49.9337 83.3587 49.7398 83.4406C49.7154 83.4513 49.692 83.462 49.6676 83.4727C49.6442 83.4844 49.6208 83.4961 49.5975 83.5088C49.5867 83.5146 49.575 83.5215 49.5633 83.5283C49.5302 83.5468 49.4961 83.5683 49.4639 83.5906C49.4425 83.6053 49.421 83.6199 49.4006 83.6355C49.3801 83.6511 49.3587 83.6667 49.3392 83.6832C48.9785 83.9805 48.7485 84.4308 48.7485 84.9347V84.9406C48.7485 84.9669 48.7495 84.9922 48.7514 85.0176C48.7524 85.0449 48.7544 85.0721 48.7573 85.1004C48.8265 85.7856 49.3216 86.3451 49.9746 86.5078C49.9941 86.5127 50.0136 86.5166 50.0331 86.5215C50.0565 86.5263 50.0945 86.5332 50.1169 86.5371C50.1209 86.538 50.1248 86.538 50.1276 86.538C50.1822 86.5468 50.2359 86.5517 50.2924 86.5546C50.3187 86.5556 50.344 86.5566 50.3703 86.5566C50.3899 86.5566 50.4084 86.5556 50.4279 86.5556C50.4503 86.5546 50.4727 86.5536 50.4951 86.5517C50.5126 86.5507 50.5282 86.5488 50.5448 86.5478C50.5487 86.5468 50.5536 86.5468 50.5575 86.5459C50.575 86.5439 50.5916 86.5419 50.6082 86.539C50.6238 86.5371 50.6384 86.5351 50.653 86.5312C50.654 86.5312 50.6559 86.5312 50.6569 86.5303C50.6676 86.5283 50.6793 86.5263 50.69 86.5244C50.7027 86.5224 50.7154 86.5196 50.7281 86.5166C50.7417 86.5137 50.7553 86.5108 50.769 86.5068C50.7749 86.5059 50.7816 86.504 50.7875 86.502C50.8031 86.4981 50.8197 86.4932 50.8353 86.4884C50.8548 86.4825 50.8733 86.4757 50.8928 86.4698L50.8879 86.4728C50.7553 86.5478 49.1598 87.4172 47.4766 86.5078H47.4756C47.1169 85.85 46.9756 85.0565 47.1491 84.2242C47.4113 82.9669 48.4025 81.9756 49.6598 81.7134C50.6735 81.5019 51.6296 81.7583 52.3519 82.3041C52.6306 82.5156 52.7534 82.807 52.7534 83.0936Z" fill="#EC6623" />
    <path d="M63.359 85.9767C62.9369 87.2438 61.741 88.158 60.3314 88.158C59.7476 88.158 59.1999 88.001 58.7291 87.7262C58.2252 87.4328 57.809 87.0059 57.5303 86.4923C59.1599 87.3734 60.7067 86.5312 60.8344 86.4582L60.8393 86.4552L60.8412 86.4542C60.8958 86.4357 60.9484 86.4133 61.001 86.3889L61.0274 86.3763C61.0342 86.3724 61.042 86.3694 61.0478 86.3656C61.0722 86.3529 61.0966 86.3392 61.1209 86.3256C61.1297 86.3207 61.1385 86.3159 61.1472 86.31C61.1599 86.3032 61.1716 86.2954 61.1843 86.2876C61.511 86.0771 61.895 85.9747 62.2827 85.9747H63.359V85.9767Z" fill="#EC6623" />
    <path d="M62.6391 83.1823C62.6391 83.6735 62.2666 84.1521 61.677 84.1521C61.6762 84.1511 61.6762 84.1511 61.6762 84.1511C61.4002 83.6979 60.9012 83.3948 60.332 83.3948C60.1156 83.3948 59.908 83.4386 59.7208 83.5185C59.6974 83.5283 59.6741 83.539 59.6506 83.5497C59.6273 83.5614 59.6048 83.5731 59.5824 83.5848C59.5717 83.5907 59.561 83.5975 59.5493 83.6033C59.5171 83.6218 59.484 83.6413 59.4528 83.6638C59.4323 83.6784 59.4118 83.692 59.3914 83.7076C59.3709 83.7222 59.3514 83.7378 59.3319 83.7544C58.983 84.0429 58.7598 84.4786 58.7598 84.9669V84.9728C58.7598 84.9981 58.7608 85.0234 58.7618 85.0478C58.7627 85.0741 58.7647 85.1014 58.7676 85.1277C58.8349 85.7915 59.3144 86.3324 59.947 86.4913C59.9655 86.4961 59.985 86.5001 60.0035 86.504C60.0259 86.5088 60.063 86.5157 60.0853 86.5196C60.0893 86.5205 60.0922 86.5205 60.0961 86.5205C60.1487 86.5283 60.2013 86.5342 60.2559 86.5361C60.2813 86.5371 60.3066 86.5381 60.332 86.5381C60.3505 86.5381 60.369 86.5371 60.3875 86.5371C60.409 86.5361 60.4314 86.5352 60.4528 86.5332C60.4694 86.5322 60.485 86.5303 60.5015 86.5293C60.5054 86.5283 60.5094 86.5283 60.5142 86.5273C60.5308 86.5254 60.5473 86.5234 60.5629 86.5205C60.5775 86.5186 60.5922 86.5166 60.6068 86.5137C60.6078 86.5137 60.6087 86.5137 60.6107 86.5127C60.6214 86.5108 60.6322 86.5088 60.6429 86.5069C60.6555 86.5049 60.6673 86.502 60.6799 86.4991C60.6926 86.4961 60.7062 86.4932 60.7198 86.4893C60.7257 86.4884 60.7326 86.4864 60.7384 86.4845C60.754 86.4806 60.7696 86.4757 60.7852 86.4718C60.8037 86.4669 60.8222 86.4601 60.8407 86.4543L60.8358 86.4572C60.7072 86.5303 59.1614 87.3724 57.5317 86.4913H57.5307C57.1838 85.8548 57.0473 85.0858 57.215 84.2798C57.4693 83.0614 58.4294 82.1014 59.6468 81.848C60.6282 81.6433 61.5541 81.8908 62.2538 82.4201C62.5191 82.6228 62.6391 82.9045 62.6391 83.1823Z" fill="#EC6623" />
    <path d="M55.5143 87.772C55.8825 87.772 56.181 87.4736 56.181 87.1054C56.181 86.7372 55.8825 86.4387 55.5143 86.4387C55.1461 86.4387 54.8477 86.7372 54.8477 87.1054C54.8477 87.4736 55.1461 87.772 55.5143 87.772Z" fill="#EC6623" />
    <path d="M70.4545 85.5371C68.8092 86.6979 67.397 86.6199 67.397 86.6199C67.3688 86.6219 67.3403 86.6219 67.3121 86.6219C66.3981 86.6219 65.6574 85.8802 65.6574 84.9669C65.6574 84.0527 66.3981 83.3119 67.3121 83.3119C67.351 83.3119 67.3891 83.3139 67.4272 83.3168C67.4098 83.3012 67.3978 83.2924 67.3978 83.2924C67.3978 83.2924 66.0625 83.08 64.5335 83.4474C64.517 83.4513 64.5012 83.4552 64.4868 83.4591C64.2459 83.9084 64.1094 84.4221 64.1094 84.9679C64.1094 86.7369 65.544 88.1706 67.3121 88.1706C68.892 88.1706 70.205 87.0264 70.4673 85.5225C70.4586 85.5322 70.4545 85.5371 70.4545 85.5371Z" fill="#EC6623" />
    <path d="M70.5137 84.9679C70.5137 85.157 70.4972 85.3422 70.4662 85.5225C70.4583 85.5322 70.4533 85.5381 70.4533 85.5381C68.8081 86.6989 67.3958 86.6209 67.3958 86.6209C68.2702 86.5771 68.9658 85.8529 68.9658 84.9679C68.9658 84.0926 68.2867 83.3753 67.4252 83.3178C67.4074 83.3022 67.3958 83.2934 67.3958 83.2934C67.3958 83.2934 66.0605 83.0809 64.5311 83.4484C64.5146 83.4523 64.4989 83.4562 64.4844 83.4601C65.0244 82.4513 66.0878 81.7651 67.311 81.7651C69.08 81.7642 70.5137 83.1979 70.5137 84.9679Z" fill="#EC6623" />
    <path d="M79.9718 84.1872V88.1697C78.5976 88.1697 77.9662 87.0556 77.9662 85.6813V83.2622C77.9662 83.1248 77.8557 83.0108 77.7183 83.0108C77.7175 83.0108 77.7166 83.0108 77.7154 83.0108C77.1373 83.0108 76.6482 83.2018 76.4786 83.4659C76.4045 83.0683 76.2651 82.7125 76.0549 82.4269C76.035 82.4016 76.0155 82.3753 75.9961 82.3509C76.3937 81.9542 77.0235 81.6979 77.7311 81.6979C77.811 81.6979 77.8888 81.7008 77.9649 81.7076C78.6121 81.7603 79.1521 82.0322 79.4806 82.424C79.4815 82.425 79.4827 82.4259 79.4827 82.4269C79.6081 82.5985 79.7095 82.7963 79.7868 83.0137C79.7868 83.0147 79.7877 83.0147 79.7877 83.0156C79.9114 83.3655 79.9718 83.7642 79.9718 84.1872Z" fill="#EC6623" />
    <path d="M73.3288 84.1872V88.1697C71.9537 88.1697 71.3223 87.0556 71.3223 85.6813V81.6998C71.9703 81.6998 72.4519 81.9474 72.7821 82.3529C72.8024 82.3772 72.821 82.4026 72.8405 82.4289C73.0503 82.7154 73.1906 83.0702 73.2646 83.4679C73.2948 83.6228 73.3122 83.7846 73.3221 83.9503C73.3271 84.0283 73.3288 84.1073 73.3288 84.1872Z" fill="#EC6623" />
    <path d="M76.757 84.1872V88.1697C75.3828 88.1697 74.7513 87.0556 74.7513 85.6813V83.2622C74.7513 83.1248 74.6413 83.0108 74.5039 83.0108C74.5026 83.0108 74.5018 83.0108 74.5006 83.0108C73.9229 83.0108 73.4334 83.2018 73.2637 83.4659C73.1897 83.0683 73.0506 82.7125 72.84 82.4269C72.8206 82.4016 72.8011 82.3753 72.7812 82.3509C73.1789 81.9542 73.8087 81.6979 74.5163 81.6979C74.5961 81.6979 74.6744 81.7008 74.7501 81.7076C75.3973 81.7603 75.9373 82.0322 76.2658 82.424C76.2671 82.425 76.2679 82.4259 76.2679 82.4269C76.3937 82.5985 76.495 82.7963 76.572 83.0137C76.572 83.0147 76.5728 83.0147 76.5728 83.0156C76.6978 83.3655 76.757 83.7642 76.757 84.1872Z" fill="#EC6623" />
  </g>
  <defs>
    <clipPath id="clip0">
      <rect width="60" height="9.51724" fill="white" transform="translate(20 79)" />
    </clipPath>
  </defs>
</svg>
