<svg width="100" height="100" viewBox="0 0 100 100" fill="none" xmlns="http://www.w3.org/2000/svg">
	<path d="M50 100C77.6142 100 100 77.6142 100 50C100 22.3858 77.6142 0 50 0C22.3858 0 0 22.3858 0 50C0 77.6142 22.3858 100 50 100Z" fill="#324A5E" />
	<path d="M78.9759 26.1417V76.063C78.9759 77.4803 77.7948 78.6614 76.3775 78.6614H71.8105V33.3858L59.6845 21.2598H28.1885V16.6929C28.1885 15.2756 29.3696 14.0945 30.7869 14.0945H66.8499V23.5433C66.8499 24.9606 68.031 26.1417 69.4483 26.1417H78.9759V26.1417Z" fill="#E6E9EE" />
	<path d="M66.9287 14.0945V23.5433C66.9287 24.9606 68.1098 26.1417 69.5271 26.1417H78.976L66.9287 14.0945Z" fill="#54C0EB" />
	<path d="M59.6849 21.3386H23.6219C22.2045 21.3386 21.0234 22.5197 21.0234 23.937V83.3071C21.0234 84.7244 22.2045 85.9055 23.6219 85.9055H69.1337C70.551 85.9055 71.7321 84.7244 71.7321 83.3071V33.3859H62.2833C60.866 33.3859 59.6849 32.2048 59.6849 30.7874V21.3386Z" fill="white" />
	<path d="M59.6846 21.3386V30.7874C59.6846 32.2048 60.8657 33.3859 62.283 33.3859H71.7318L59.6846 21.3386Z" fill="#84DBFF" />
	<path d="M59.6846 21.3386V30.7874C59.6846 32.2048 60.8657 33.3859 62.283 33.3859H71.7318L59.6846 21.3386Z" fill="white" />
	<path d="M46.457 57.3229C46.3782 57.3229 46.3782 57.3229 46.457 57.3229C46.3782 57.3229 46.3782 57.3229 46.457 57.3229C41.4963 54.8819 42.0475 51.811 42.0475 51.811C42.0475 51.7323 42.0475 51.7323 42.0475 51.6536C43.2286 53.1496 44.8034 54.0945 46.457 54.0945C48.1105 54.0945 49.6066 53.1496 50.8664 51.6536C50.8664 51.7323 50.8664 51.7323 50.8664 51.811C50.8664 51.811 50.8664 51.811 50.8664 51.8898C50.8664 52.3622 50.9452 55.1181 46.457 57.3229Z" fill="#F9B54C" />
	<path d="M46.3783 72.2835C52.9925 72.2835 58.898 69.1339 62.6775 64.252L60.5515 57.7953L51.7326 53.5433C51.7326 55.0394 51.6539 57.7166 51.1815 61.0236C50.0791 57.5591 46.3783 57.3229 46.3783 57.3229C46.3783 57.3229 42.6775 57.6378 41.5752 61.1024C41.1027 57.7166 41.024 55.1181 41.024 53.5433L32.2051 57.7953L30.0791 64.252C33.8586 69.1339 39.7641 72.2835 46.3783 72.2835Z" fill="#324A5E" />
	<path d="M50.7874 51.811C50.7874 51.811 51.3386 54.9606 46.3779 57.3229C46.3779 57.3229 50.0787 57.6378 51.1811 61.1024C51.2598 61.1811 53.2283 53.6221 50.7874 51.811Z" fill="white" />
	<path d="M42.0473 51.811C42.0473 51.811 41.4961 54.9606 46.4567 57.3229C46.4567 57.3229 42.7559 57.6378 41.6536 61.1024C41.5748 61.1811 39.6063 53.6221 42.0473 51.811Z" fill="white" />
	<path d="M52.677 46.7717C52.8345 45.9055 52.9132 44.9606 52.9132 44.1732C52.9132 39.4488 49.9998 37.5591 46.3778 37.5591C42.7557 37.5591 39.8424 39.4488 39.8424 44.1732C39.8424 45.0394 39.9211 45.9055 40.0786 46.7717C39.5274 47.0079 39.3699 47.874 39.7636 48.6614C40.0786 49.2126 40.551 49.6063 41.0235 49.6063C42.2046 52.441 44.1731 54.6457 46.3778 54.6457C48.5825 54.6457 50.551 52.441 51.7321 49.6063C52.2046 49.6063 52.677 49.2126 52.992 48.6614C53.3857 47.874 53.2282 47.0866 52.677 46.7717Z" fill="#FFD05B" />
	<path d="M46.3781 34.882C46.3781 34.882 49.2127 34.9607 51.7324 37.3229C57.2442 42.5197 51.4174 50.2363 51.4174 50.2363C51.4174 50.2363 52.2048 48.3465 51.8899 46.378C51.8111 45.6694 51.7324 44.8819 51.7324 44.1733C51.8111 42.8347 51.4962 40.7875 48.2678 41.3386C48.2678 41.3386 46.4568 42.6772 42.0474 41.5749C42.0474 41.5749 39.2127 45.9056 40.7875 49.6064C40.7875 49.6064 36.1418 42.5985 41.0237 38.1103L39.7639 38.4253C39.7639 38.4253 41.5749 35.0394 45.2757 36.2205C45.2757 36.2205 44.9607 35.6694 43.7796 35.3544C43.7796 35.3544 45.4332 34.6457 46.3781 35.8268C46.3781 35.7481 46.9292 35.3544 46.3781 34.882Z" fill="#324A5E" />
</svg>
